<svg width="1024" height="1024" viewBox="0 0 1024 1024" fill="none" xmlns="http://www.w3.org/2000/svg">
  <defs>
    <linearGradient id="shell" x1="96" y1="56" x2="928" y2="968" gradientUnits="userSpaceOnUse">
      <stop stop-color="#FFF7ED"/>
      <stop offset="0.48" stop-color="#F8FAFC"/>
      <stop offset="1" stop-color="#ECFDF5"/>
    </linearGradient>
    <linearGradient id="accent" x1="236" y1="706" x2="804" y2="330" gradientUnits="userSpaceOnUse">
      <stop stop-color="#F59E0B"/>
      <stop offset="1" stop-color="#10B981"/>
    </linearGradient>
    <filter id="lift" x="58" y="58" width="908" height="908" filterUnits="userSpaceOnUse" color-interpolation-filters="sRGB">
      <feFlood flood-opacity="0" result="BackgroundImageFix"/>
      <feColorMatrix in="SourceAlpha" type="matrix" values="0 0 0 0 0 0 0 0 0 0 0 0 0 0 0 0 0 0 127 0" result="hardAlpha"/>
      <feOffset dy="22"/>
      <feGaussianBlur stdDeviation="26"/>
      <feComposite in2="hardAlpha" operator="out"/>
      <feColorMatrix type="matrix" values="0 0 0 0 0.15 0 0 0 0 0.18 0 0 0 0 0.24 0 0 0 0.24 0"/>
      <feBlend mode="normal" in2="BackgroundImageFix" result="effect1_dropShadow"/>
      <feBlend mode="normal" in="SourceGraphic" in2="effect1_dropShadow" result="shape"/>
    </filter>
  </defs>

  <rect width="1024" height="1024" rx="224" fill="url(#shell)"/>

  <g filter="url(#lift)">
    <rect x="84" y="84" width="856" height="856" rx="178" fill="#FFFFFF"/>
    <rect x="132" y="132" width="760" height="760" rx="132" fill="#F8FAFC"/>
    <rect x="132" y="132" width="760" height="126" rx="132" fill="#EEF2F7"/>
    <path d="M132 226H892" stroke="#EEF2F7" stroke-width="64"/>

    <circle cx="220" cy="194" r="18" fill="#F59E0B"/>
    <circle cx="278" cy="194" r="18" fill="#10B981"/>
    <circle cx="336" cy="194" r="18" fill="#CBD5E1"/>

    <path d="M398 362L276 484L398 606" stroke="#111827" stroke-width="54" stroke-linecap="round" stroke-linejoin="round"/>
    <path d="M626 362L748 484L626 606" stroke="#111827" stroke-width="54" stroke-linecap="round" stroke-linejoin="round"/>
    <path d="M570 326L454 644" stroke="url(#accent)" stroke-width="58" stroke-linecap="round"/>

    <g transform="skewX(-10 512 738)">
      <text x="512" y="784" text-anchor="middle" font-family="Aptos Display, Avenir Next, Segoe UI, sans-serif" font-size="146" font-style="italic" font-weight="900" letter-spacing="6" fill="url(#accent)">ACM</text>
      <path d="M286 820H738" stroke="url(#accent)" stroke-width="24" stroke-linecap="round"/>
      <path d="M704 788L738 820L704 852" stroke="#10B981" stroke-width="24" stroke-linecap="round" stroke-linejoin="round"/>
    </g>
  </g>
</svg>
